<?xml version="1.0" encoding="UTF-8" standalone="no"?>
<svg width="50px" height="50px" viewBox="0 0 50 50" version="1.1" xmlns="http://www.w3.org/2000/svg" xmlns:xlink="http://www.w3.org/1999/xlink">
    <!-- Generator: Sketch 3.7.2 (28276) - http://www.bohemiancoding.com/sketch -->
    <title>document_on</title>
    <desc>Created with Sketch.</desc>
    <defs></defs>
    <g id="Page-1" stroke="none" stroke-width="1" fill="none" fill-rule="evenodd">
        <g id="Desktop" transform="translate(-754.000000, -1102.000000)">
            <g id="text-document" transform="translate(754.000000, 1102.000000)">
                <g id="icon-large-text-document" transform="translate(10.000000, 5.000000)">
                    <g id="Group">
                        <path d="M2.55555556,40 C1.69792593,40 1,39.2906216 1,38.4189189 L1,2.58108108 C1,1.70937838 1.69792593,1 2.55555556,1 L18.7437037,1 L20.794963,9.33967568 L29,11.4267027 L29,38.4189189 C29,39.2906216 28.3020741,40 27.4444444,40 L2.55555556,40 L2.55555556,40 Z" id="Shape" fill="#FFFFFF"></path>
                        <path d="M17.8438462,1 L19.7234615,8.64538889 L19.8750769,9.25972222 L20.4794615,9.41383333 L28,11.3233333 L28,37.9444444 C28,38.525 27.5326923,39 26.9615385,39 L2.03846154,39 C1.46730769,39 1,38.525 1,37.9444444 L1,2.05555556 C1,1.475 1.46730769,1 2.03846154,1 L17.8438462,1 L17.8438462,1 Z M2.07142857,0 C0.932142857,0 0,0.947368421 0,2.10526316 L0,37.8947368 C0,39.0526316 0.932142857,40 2.07142857,40 L26.9285714,40 C28.0678571,40 29,39.0526316 29,37.8947368 L29,11 L20.7142857,8.42105263 L18,0 L2.07142857,0 Z" id="Shape" fill="#777677"></path>
                        <path d="M19.6456,12 C18.7381,12 18,11.2597 18,10.35 L18,1 L18.55,1 C18.6963,1 18.836,1.0572 18.9394,1.1606 L28.8394,11.0606 C28.9417,11.1651 29,11.3059 29,11.45 L29,12 L19.6456,12 L19.6456,12 Z" id="Shape" fill="#CEE0F3"></path>
                        <path d="M18,1 L28,11 L19.1066667,11 C18.4955556,11 18,10.5 18,9.88888889 L18,1 L18,1 Z M18.0909091,0 L17,0 L17,9.81818182 C17,11.0181818 17.9796364,12 19.1774545,12 L29,12 L29,10.9090909 C29,10.62 28.8854545,10.3418182 28.6803636,10.1389091 L18.8621818,0.317454545 C18.6581818,0.115636364 18.38,0 18.0909091,0 L18.0909091,0 Z" id="Shape" fill="#777677"></path>
                        <path d="M5,16 L24,16 L24,17 L5,17 L5,16 Z M16,20 L24,20 L24,21 L16,21 L16,20 Z M16,24 L24,24 L24,25 L16,25 L16,24 Z M5,32 L24,32 L24,33 L5,33 L5,32 Z M16,28 L24,28 L24,29 L16,29 L16,28 Z" id="Shape" fill="#BFC0BF"></path>
                        <polygon id="Shape" fill="#CEE0F3" points="6 21 13 21 13 29 6 29"></polygon>
                        <path d="M12,21 L12,28 L6,28 L6,21 L12,21 L12,21 Z M13,20 L5,20 L5,29 L13,29 L13,20 L13,20 Z" id="Shape" fill="#777677"></path>
                    </g>
                </g>
            </g>
        </g>
    </g>
</svg>