<?xml version="1.0" encoding="UTF-8" standalone="no"?>
<svg width="50px" height="50px" viewBox="0 0 50 50" version="1.1" xmlns="http://www.w3.org/2000/svg" xmlns:xlink="http://www.w3.org/1999/xlink">
    <!-- Generator: Sketch 3.7.2 (28276) - http://www.bohemiancoding.com/sketch -->
    <title>folder_on</title>
    <desc>Created with Sketch.</desc>
    <defs>
        <path d="M2.66666667,0 C1.2,0 0,1.2 0,2.66666667 L0,12 L40,12 L40,8 C40,6.53333333 38.8,5.33333333 37.3333333,5.33333333 L20.4693333,5.33333333 C20.1653333,5.33333333 19.8706667,5.22933333 19.6333333,5.04 L13.6986667,0.292 C13.4626667,0.102666667 13.168,0 12.8653333,0 L2.66666667,0 Z" id="path-1"></path>
        <mask id="mask-2" maskContentUnits="userSpaceOnUse" maskUnits="objectBoundingBox" x="0" y="0" width="40" height="12" fill="white">
            <use xlink:href="#path-1"></use>
        </mask>
    </defs>
    <g id="Page-1" stroke="none" stroke-width="1" fill="none" fill-rule="evenodd">
        <g id="Desktop" transform="translate(-401.000000, -906.000000)">
            <g id="folder_on" transform="translate(401.000000, 906.000000)">
                <g id="Group" transform="translate(5.000000, 5.000000)">
                    <g id="Content_Collection">
                        <g id="Icons">
                            <g id="Group" stroke="#767676" stroke-width="2" fill="#D0E4FE">
                                <use id="Shape" mask="url(#mask-2)" xlink:href="#path-1"></use>
                            </g>
                            <g id="Group" transform="translate(0.000000, 11.000000)">
                                <path d="M3.01724138,29 C1.90506897,29 1,28.1026667 1,27 L1,1 L40,1 L40,27 C40,28.1026667 39.094931,29 37.9827586,29 L3.01724138,29 L3.01724138,29 Z" id="Shape" fill="#FFFFFF"></path>
                                <path d="M39,1 L39,26.65 C39,27.39385 38.3906429,28 37.6428571,28 L2.35714286,28 C1.60935714,28 1,27.39385 1,26.65 L1,1 L39,1 L39,1 Z M40,0 L0,0 L0,26.3636364 C0,27.8136364 1.2,29 2.66666667,29 L37.3333333,29 C38.8,29 40,27.8136364 40,26.3636364 L40,0 L40,0 L40,0 Z" id="Shape" fill="#767676"></path>
                            </g>
                        </g>
                    </g>
                </g>
            </g>
        </g>
    </g>
</svg>