<?xml version="1.0" encoding="UTF-8" standalone="no"?>
<svg width="50px" height="50px" viewBox="0 0 50 50" version="1.1" xmlns="http://www.w3.org/2000/svg" xmlns:xlink="http://www.w3.org/1999/xlink">
    <!-- Generator: Sketch 3.7.2 (28276) - http://www.bohemiancoding.com/sketch -->
    <title>link_non</title>
    <desc>Created with Sketch.</desc>
    <defs></defs>
    <g id="Page-1" stroke="none" stroke-width="1" fill="none" fill-rule="evenodd" opacity="0.5">
        <g id="Desktop" transform="translate(-508.000000, -906.000000)">
            <g id="link_non" transform="translate(508.000000, 906.000000)">
                <g id="Group" transform="translate(11.000000, 5.000000)">
                    <g id="Shape">
                        <path d="M2.55555556,40 C1.69792593,40 1,39.2906216 1,38.4189189 L1,2.58108108 C1,1.70937838 1.69792593,1 2.55555556,1 L18.7426667,1 L20.794963,9.33967568 L29,11.4256486 L29,38.4189189 C29,39.2906216 28.3020741,40 27.4444444,40 L2.55555556,40 L2.55555556,40 Z" fill="#FFFFFF"></path>
                        <path d="M17.8428077,1 L19.7234615,8.64538889 L19.8750769,9.25972222 L20.4794615,9.41383333 L28,11.3243889 L28,37.9444444 C28,38.5260556 27.5337308,39 26.9615385,39 L2.03846154,39 C1.46626923,39 1,38.5260556 1,37.9444444 L1,2.05555556 C1,1.47394444 1.46626923,1 2.03846154,1 L17.8428077,1 L17.8428077,1 Z M18.6428571,0 L2.07142857,0 C0.932142857,0 0,0.947368421 0,2.10526316 L0,37.8947368 C0,39.0526316 0.932142857,40 2.07142857,40 L26.9285714,40 C28.0678571,40 29,39.0526316 29,37.8947368 L29,10.5263158 L20.7142857,8.42105263 L18.6428571,0 L18.6428571,0 L18.6428571,0 Z" fill="#767676"></path>
                    </g>
                    <g transform="translate(18.000000, 0.000000)" id="Shape">
                        <path d="M2.496,12 C1.671,12 1,11.2597 1,10.35 L1,1 L1.5,1 C1.633,1 1.759,1.0572 1.854,1.1606 L10.853,11.0617 C10.947,11.1651 11,11.3059 11,11.45 L11,12 L2.496,12 L2.496,12 Z" fill="#E2E2E2"></path>
                        <path d="M1,1 L10,11 L1.996,11 C1.447,11 1,10.5011111 1,9.88888889 L1,1 L1,1 Z M1,0 L0,0 L0,9.81818182 C0,11.0181818 0.898,12 1.996,12 L11,12 L11,10.9090909 C11,10.62 10.895,10.3429091 10.707,10.1389091 L1.707,0.317454545 C1.519,0.114545455 1.265,0 1,0 L1,0 L1,0 Z" fill="#767676"></path>
                    </g>
                    <g transform="translate(6.000000, 17.000000)" id="Shape" stroke="#767676" fill="#FFFFFF">
                        <path d="M8.81287162,10.7016237 C9.1787651,11.57033 9.00808295,12.6107336 8.30082515,13.3179627 L5.31848664,16.3001804 C4.38535605,17.2332732 2.87374582,17.2332732 1.94061523,16.3001804 L0.699847942,15.0594634 C-0.233282647,14.1263706 -0.233282647,12.6148216 0.699847942,11.6817288 L3.68218645,8.69951114 C4.37411351,8.00761211 5.38594186,7.82876081 6.24241879,8.16397925"></path>
                        <path d="M8.18233038,6.28820638 C7.82258193,5.42153717 7.99530207,4.3872574 8.69946878,3.68206664 L11.6817017,0.699825171 C12.6147992,-0.233275057 14.1263559,-0.233275057 15.0594535,0.699825171 L16.3001768,1.94055209 C17.2332744,2.87365232 17.2332744,4.38521337 16.3001768,5.31831359 L13.3179439,8.30055507 C12.6107112,9.00778985 11.5713243,9.17846645 10.7036356,8.81360689"></path>
                        <path d="M5,12 L12,5"></path>
                    </g>
                </g>
            </g>
        </g>
    </g>
</svg>