<?xml version="1.0" encoding="utf-8"?>
<!-- Generator: Adobe Illustrator 21.0.2, SVG Export Plug-In . SVG Version: 6.00 Build 0)  -->
<svg version="1.1" xmlns="http://www.w3.org/2000/svg" xmlns:xlink="http://www.w3.org/1999/xlink" x="0px" y="0px" width="50px"
	 height="50px" viewBox="0 0 50 50" style="enable-background:new 0 0 50 50;" xml:space="preserve">
<style type="text/css">
	.st0{display:none;}
	.st1{display:inline;fill:none;stroke:#777677;stroke-miterlimit:10;}
	.st2{display:inline;fill:#FBD4D3;stroke:#777677;stroke-miterlimit:10;}
	.st3{display:inline;}
	.st4{fill:none;stroke:#777677;stroke-miterlimit:10;}
	.st5{fill:#FBD4D3;stroke:#777677;stroke-miterlimit:10;}
	.st6{fill:#FBD4D3;}
	.st7{display:inline;fill:#FFFFFF;}
	.st8{display:inline;fill:#FFFFFF;stroke:#777677;stroke-miterlimit:10;}
	.st9{display:inline;fill:#777677;}
</style>
<g id="guide">
</g>
<g id="Layer_5" class="st0">
	<path class="st1" d="M38.5,18.5h-27C7.9,18.5,5,15.6,5,12v0c0-3.6,2.9-6.5,6.5-6.5h27c3.6,0,6.5,2.9,6.5,6.5v0
		C45,15.6,42.1,18.5,38.5,18.5z"/>
	<path class="st1" d="M38.5,18.5h-27C7.9,18.5,5,21.4,5,25v0c0,3.6,2.9,6.5,6.5,6.5h27c3.6,0,6.5-2.9,6.5-6.5v0
		C45,21.4,42.1,18.5,38.5,18.5z"/>
	<path class="st1" d="M38.5,31.5h-27C7.9,31.5,5,34.4,5,38v0c0,3.6,2.9,6.5,6.5,6.5h27c3.6,0,6.5-2.9,6.5-6.5v0
		C45,34.4,42.1,31.5,38.5,31.5z"/>
	<circle class="st2" cx="16.3" cy="12" r="5.5"/>
	<circle class="st2" cx="34" cy="25" r="5.5"/>
	<circle class="st2" cx="16" cy="38" r="5.5"/>
</g>
<g id="Layer_5_copy" class="st0">
	<g class="st3">
		<path class="st4" d="M40.3,16.3H9.7c-2.6,0-4.7-2.1-4.7-4.7v0C5,9,7.1,6.9,9.7,6.9h30.6c2.6,0,4.7,2.1,4.7,4.7v0
			C45,14.2,42.9,16.3,40.3,16.3z"/>
		<circle class="st5" cx="16.3" cy="11.6" r="3.5"/>
	</g>
	<g class="st3">
		<path class="st4" d="M40.3,29.3H9.7c-2.6,0-4.7-2.1-4.7-4.7v0c0-2.6,2.1-4.7,4.7-4.7h30.6c2.6,0,4.7,2.1,4.7,4.7v0
			C45,27.2,42.9,29.3,40.3,29.3z"/>
		<circle class="st5" cx="29.8" cy="24.6" r="3.5"/>
	</g>
	<g class="st3">
		<path class="st4" d="M40.3,42.3H9.7c-2.6,0-4.7-2.1-4.7-4.7v0c0-2.6,2.1-4.7,4.7-4.7h30.6c2.6,0,4.7,2.1,4.7,4.7v0
			C45,40.2,42.9,42.3,40.3,42.3z"/>
		<circle class="st5" cx="21.5" cy="37.6" r="3.5"/>
	</g>
</g>
<g id="Layer_5_copy_2">
	<g>
		<path class="st6" d="M14.3,7.5H8.6c0,0-8,3.8-0.4,9l7.5,0.2L14.3,7.5z"/>
		<path class="st6" d="M21.3,20.4H8.6c0,0-8,3.8-0.4,9l14.5,0.2L21.3,20.4z"/>
		<path class="st6" d="M30.3,33.4H8.6c0,0-8,3.8-0.4,9l23.5,0.2L30.3,33.4z"/>
		<path class="st4" d="M40.3,16.8H9.7c-2.6,0-4.7-2.1-4.7-4.7v0c0-2.6,2.1-4.7,4.7-4.7h30.6c2.6,0,4.7,2.1,4.7,4.7v0
			C45,14.7,42.9,16.8,40.3,16.8z"/>
		<circle class="st5" cx="16.3" cy="12" r="6"/>
		<path class="st4" d="M40.3,29.8H9.7c-2.6,0-4.7-2.1-4.7-4.7v0c0-2.6,2.1-4.7,4.7-4.7h30.6c2.6,0,4.7,2.1,4.7,4.7v0
			C45,27.7,42.9,29.8,40.3,29.8z"/>
		<circle class="st5" cx="25" cy="25" r="6"/>
		<path class="st4" d="M40.3,42.8H9.7c-2.6,0-4.7-2.1-4.7-4.7v0c0-2.6,2.1-4.7,4.7-4.7h30.6c2.6,0,4.7,2.1,4.7,4.7v0
			C45,40.7,42.9,42.8,40.3,42.8z"/>
		<circle class="st5" cx="33.8" cy="38" r="6"/>
	</g>
</g>
<g id="Layer_13" class="st0">
	<path class="st7" d="M39.1,17.3H10.9c-3.3,0-5.9-2.6-5.9-5.9v0c0-3.3,2.6-5.9,5.9-5.9h28.2c3.3,0,5.9,2.6,5.9,5.9v0
		C45,14.7,42.4,17.3,39.1,17.3z"/>
	<path class="st1" d="M39.1,17.3H10.9c-3.3,0-5.9-2.6-5.9-5.9v0c0-3.3,2.6-5.9,5.9-5.9h28.2c3.3,0,5.9,2.6,5.9,5.9v0
		C45,14.7,42.4,17.3,39.1,17.3z"/>
	<path class="st1" d="M39.1,44.5H10.9c-3.3,0-5.9-2.6-5.9-5.9v0c0-3.3,2.6-5.9,5.9-5.9h28.2c3.3,0,5.9,2.6,5.9,5.9v0
		C45,41.9,42.4,44.5,39.1,44.5z"/>
	<path class="st8" d="M39.1,44.5H10.9c-3.3,0-5.9-2.6-5.9-5.9v0c0-3.3,2.6-5.9,5.9-5.9h28.2c3.3,0,5.9,2.6,5.9,5.9v0
		C45,41.9,42.4,44.5,39.1,44.5z"/>
	<path class="st1" d="M39.1,30.9H10.9C7.6,30.9,5,28.3,5,25v0c0-3.3,2.6-5.9,5.9-5.9h28.2c3.3,0,5.9,2.6,5.9,5.9v0
		C45,28.3,42.4,30.9,39.1,30.9z"/>
	<path class="st8" d="M39.1,30.9H10.9C7.6,30.9,5,28.3,5,25v0c0-3.3,2.6-5.9,5.9-5.9h28.2c3.3,0,5.9,2.6,5.9,5.9v0
		C45,28.3,42.4,30.9,39.1,30.9z"/>
	<circle class="st2" cx="17.7" cy="11.4" r="5.9"/>
	<circle class="st2" cx="31.9" cy="25" r="5.9"/>
	<circle class="st2" cx="17.7" cy="38.6" r="5.9"/>
</g>
<g id="Layer_13_copy_2" class="st0">
	<path class="st7" d="M39.1,17.3H10.9c-3.3,0-5.9-2.6-5.9-5.9v0c0-3.3,2.6-5.9,5.9-5.9h28.2c3.3,0,5.9,2.6,5.9,5.9v0
		C45,14.7,42.4,17.3,39.1,17.3z"/>
	<path class="st1" d="M39.1,17.3H10.9c-3.3,0-5.9-2.6-5.9-5.9v0c0-3.3,2.6-5.9,5.9-5.9h28.2c3.3,0,5.9,2.6,5.9,5.9v0
		C45,14.7,42.4,17.3,39.1,17.3z"/>
	<path class="st1" d="M39.1,44.5H10.9c-3.3,0-5.9-2.6-5.9-5.9v0c0-3.3,2.6-5.9,5.9-5.9h28.2c3.3,0,5.9,2.6,5.9,5.9v0
		C45,41.9,42.4,44.5,39.1,44.5z"/>
	<path class="st8" d="M39.1,44.5H10.9c-3.3,0-5.9-2.6-5.9-5.9v0c0-3.3,2.6-5.9,5.9-5.9h28.2c3.3,0,5.9,2.6,5.9,5.9v0
		C45,41.9,42.4,44.5,39.1,44.5z"/>
	<path class="st1" d="M39.1,30.9H10.9C7.6,30.9,5,28.3,5,25v0c0-3.3,2.6-5.9,5.9-5.9h28.2c3.3,0,5.9,2.6,5.9,5.9v0
		C45,28.3,42.4,30.9,39.1,30.9z"/>
	<path class="st8" d="M39.1,30.9H10.9C7.6,30.9,5,28.3,5,25v0c0-3.3,2.6-5.9,5.9-5.9h28.2c3.3,0,5.9,2.6,5.9,5.9v0
		C45,28.3,42.4,30.9,39.1,30.9z"/>
	<circle class="st2" cx="17.7" cy="11.4" r="5"/>
	<circle class="st2" cx="31.9" cy="25" r="5"/>
	<circle class="st2" cx="17.7" cy="38.6" r="5"/>
</g>
<g id="Layer_13_copy" class="st0">
	<path class="st7" d="M39.1,17.3H10.9c-3.3,0-5.9-2.6-5.9-5.9v0c0-3.3,2.6-5.9,5.9-5.9h28.2c3.3,0,5.9,2.6,5.9,5.9v0
		C45,14.7,42.4,17.3,39.1,17.3z"/>
	<path class="st9" d="M39.1,17.8H10.9c-3.5,0-6.4-2.9-6.4-6.4C4.5,7.9,7.4,5,10.9,5h28.2c3.5,0,6.4,2.9,6.4,6.4
		C45.5,14.9,42.6,17.8,39.1,17.8z M10.9,6c-3,0-5.4,2.4-5.4,5.4s2.4,5.4,5.4,5.4h28.2c3,0,5.4-2.4,5.4-5.4S42.1,6,39.1,6H10.9z"/>
	<path class="st7" d="M39.1,44.5H10.9c-3.3,0-5.9-2.6-5.9-5.9v0c0-3.3,2.6-5.9,5.9-5.9h28.2c3.3,0,5.9,2.6,5.9,5.9v0
		C45,41.9,42.4,44.5,39.1,44.5z"/>
	<path class="st9" d="M39.1,45H10.9c-3.5,0-6.4-2.9-6.4-6.4c0-3.5,2.9-6.4,6.4-6.4h28.2c3.5,0,6.4,2.9,6.4,6.4
		C45.5,42.1,42.6,45,39.1,45z M10.9,33.2c-3,0-5.4,2.4-5.4,5.4S7.9,44,10.9,44h28.2c3,0,5.4-2.4,5.4-5.4s-2.4-5.4-5.4-5.4H10.9z"/>
	<path class="st7" d="M39.1,30.9H10.9C7.6,30.9,5,28.3,5,25v0c0-3.3,2.6-5.9,5.9-5.9h28.2c3.3,0,5.9,2.6,5.9,5.9v0
		C45,28.3,42.4,30.9,39.1,30.9z"/>
	<path class="st9" d="M39.1,31.4H10.9c-3.5,0-6.4-2.9-6.4-6.4c0-3.5,2.9-6.4,6.4-6.4h28.2c3.5,0,6.4,2.9,6.4,6.4
		C45.5,28.5,42.6,31.4,39.1,31.4z M10.9,19.6c-3,0-5.4,2.4-5.4,5.4s2.4,5.4,5.4,5.4h28.2c3,0,5.4-2.4,5.4-5.4s-2.4-5.4-5.4-5.4H10.9
		z"/>
	<circle class="st2" cx="17.7" cy="11.4" r="5.9"/>
	<circle class="st2" cx="31.9" cy="25" r="5.9"/>
	<circle class="st2" cx="17.7" cy="38.6" r="5.9"/>
</g>
</svg>
